<svg width="52" height="51" viewBox="0 0 52 51" fill="none" xmlns="http://www.w3.org/2000/svg">
<path d="M9.12001 0.515137H41.9522C46.9865 0.520978 51.0662 4.50287 51.0722 9.41661V41.462C51.0662 46.3758 46.9865 50.3577 41.9522 50.3635H9.12001C4.08564 50.3577 0.00598993 46.3758 4.90729e-06 41.462V9.41661C0.00598993 4.50287 4.08564 0.520978 9.12001 0.515137ZM3.64798 41.462C3.64798 44.4117 6.09789 46.8029 9.12001 46.8029H41.9522C44.9743 46.8029 47.4242 44.4117 47.4242 41.462V9.41661C47.4242 6.46691 44.9743 4.07571 41.9522 4.07571H9.12001C6.09789 4.07571 3.64798 6.46691 3.64798 9.41661V41.462Z" fill="#17D178"/>
<path d="M16.4163 23.659H23.7124V16.5378C23.7124 15.5545 24.529 14.7574 25.5364 14.7574C26.5438 14.7574 27.3604 15.5545 27.3604 16.5378V23.659H34.6564C35.6638 23.659 36.4805 24.4561 36.4805 25.4394C36.4805 26.4226 35.6638 27.2196 34.6564 27.2196H27.3603V34.3408C27.3603 35.3241 26.5437 36.1212 25.5363 36.1212C24.5289 36.1212 23.7124 35.324 23.7124 34.3408V27.2196H16.4163C15.4089 27.2196 14.5922 26.4225 14.5922 25.4393C14.5922 24.456 15.409 23.659 16.4163 23.659Z" fill="#17D178"/>
</svg>
