<svg width="17" height="17" viewBox="0 0 17 17" fill="none" xmlns="http://www.w3.org/2000/svg">
<path d="M8.41675 16C12.5589 16 15.9167 12.6421 15.9167 8.5C15.9167 4.35786 12.5589 1 8.41675 1C4.27461 1 0.916748 4.35786 0.916748 8.5C0.916748 12.6421 4.27461 16 8.41675 16Z" stroke="#7290BE" stroke-linecap="round" stroke-linejoin="round"/>
<path d="M6.23438 6.24994C6.4107 5.74869 6.75874 5.32602 7.21684 5.05679C7.67494 4.78756 8.21355 4.68914 8.73726 4.77897C9.26097 4.8688 9.73599 5.14108 10.0782 5.54758C10.4204 5.95409 10.6077 6.46858 10.6069 6.99994C10.6069 8.49994 8.35687 9.24994 8.35687 9.24994" stroke="#7290BE" stroke-linecap="round" stroke-linejoin="round"/>
<path d="M8.41675 12.25H8.42457" stroke="#7290BE" stroke-linecap="round" stroke-linejoin="round"/>
</svg>
