<svg width="34" height="33" viewBox="0 0 34 33" fill="none" xmlns="http://www.w3.org/2000/svg">
<rect x="1.20801" y="0.5" width="32" height="32" rx="5" stroke="#FF5B87"/>
<path d="M11.708 12.8H13.1525H24.708" stroke="#FF5B87" stroke-width="1.03125" stroke-linecap="round" stroke-linejoin="round"/>
<path d="M15.319 12.8V11.4C15.319 11.0287 15.4712 10.6726 15.7421 10.4101C16.013 10.1475 16.3804 10 16.7635 10H19.6523C20.0354 10 20.4028 10.1475 20.6737 10.4101C20.9446 10.6726 21.0968 11.0287 21.0968 11.4V12.8M23.2635 12.8V22.6C23.2635 22.9713 23.1113 23.3274 22.8404 23.5899C22.5695 23.8525 22.2021 24 21.819 24H14.5968C14.2137 24 13.8463 23.8525 13.5754 23.5899C13.3045 23.3274 13.1523 22.9713 13.1523 22.6V12.8H23.2635Z" stroke="#FF5B87" stroke-width="1.03125" stroke-linecap="round" stroke-linejoin="round"/>
</svg>
