<svg width="111" height="92" viewBox="0 0 111 92" fill="none" xmlns="http://www.w3.org/2000/svg">
<path d="M77 76.7843V59.0065C76.9992 58.2271 76.7935 57.4616 76.4034 56.7869C76.0134 56.1121 75.4528 55.5518 74.7778 55.1621L59.2222 46.2732C58.5466 45.8831 57.7802 45.6777 57 45.6777C56.2198 45.6777 55.4534 45.8831 54.7778 46.2732L39.2222 55.1621C38.5473 55.5518 37.9866 56.1121 37.5966 56.7869C37.2065 57.4616 37.0008 58.2271 37 59.0065V76.7843C37.0008 77.5637 37.2065 78.3292 37.5966 79.0039C37.9866 79.6787 38.5473 80.239 39.2222 80.6287L54.7778 89.5176C55.4534 89.9077 56.2198 90.1131 57 90.1131C57.7802 90.1131 58.5466 89.9077 59.2222 89.5176L74.7778 80.6287C75.4528 80.239 76.0134 79.6787 76.4034 79.0039C76.7935 78.3292 76.9992 77.5637 77 76.7843Z" stroke="#FF8A4F" stroke-width="3" stroke-linecap="round" stroke-linejoin="round"/>
<path d="M37.5996 56.6953L56.9996 67.9175L76.3996 56.6953" stroke="#FF8A4F" stroke-width="3" stroke-linecap="round" stroke-linejoin="round"/>
<path d="M57 90.2953V67.8953" stroke="#FF8A4F" stroke-width="3" stroke-linecap="round" stroke-linejoin="round"/>
<path d="M66.5 78.6777L57 67.6777L76 56.1777L84.5 67.1777L66.5 78.6777Z" fill="white" stroke="#FF8A4F" stroke-width="3" stroke-linecap="round" stroke-linejoin="round"/>
<path d="M27.5 68.1778L37.5 57.1778L55.9998 68.1778L46.2195 78.9146L27.5 68.1778Z" fill="white" stroke="#FF8A4F" stroke-width="3" stroke-linecap="round" stroke-linejoin="round"/>
<path d="M71 34.6777C63.4 36.6777 54 47.1777 52 53.1777L63.5 59.1777C67.5 51.6777 75.5 46.5111 79.5 44.1777L71 34.6777Z" fill="white" stroke="#F267C8" stroke-width="2" stroke-linejoin="round"/>
<path d="M32.7273 23.6777C39.6364 25.5553 48.1818 35.4124 50 41.0451L39.5455 46.6777C35.9091 39.6369 28.6364 34.7866 25 32.5961L32.7273 23.6777Z" fill="white" stroke="#5287ED" stroke-width="2" stroke-linejoin="round"/>
<path d="M105.472 48.989C101.516 45.6198 92.2675 44.4841 88.256 45.6647L89.343 54.1718C94.924 53.51 100.749 55.9003 103.526 57.1899L105.472 48.989Z" fill="white" stroke="#28CAA0" stroke-width="2" stroke-linejoin="round"/>
<path d="M101.907 19.7406C98.9235 19.7742 94.4905 22.7716 93.199 24.7963L96.8792 28.0697C99.046 25.6776 102.47 24.5148 104.159 24.0255L101.907 19.7406Z" fill="white" stroke="#E0ADFF" stroke-width="1.5" stroke-linejoin="round"/>
<path d="M25.2453 7.8128C23.5785 5.33759 18.6389 3.2791 16.2376 3.3117L15.5232 8.18498C18.7123 8.68208 21.5645 10.905 22.901 12.0477L25.2453 7.8128Z" fill="white" stroke="#99EDFF" stroke-width="1.5" stroke-linejoin="round"/>
<path d="M6.28255 42.8136C10.9677 40.5668 20.1995 41.8315 23.7763 43.9978L20.552 51.9449C15.3253 49.8793 9.08261 50.702 6.06832 51.2394L6.28255 42.8136Z" fill="white" stroke="#FFBE41" stroke-width="2" stroke-linejoin="round"/>
</svg>
