<?xml version="1.0" standalone="no"?>
<!DOCTYPE svg PUBLIC "-//W3C//DTD SVG 1.1//EN" "http://www.w3.org/Graphics/SVG/1.1/DTD/svg11.dtd" >
<svg xmlns="http://www.w3.org/2000/svg">
<metadata>Generated by IcoMoon</metadata>
<defs>
<font id="icomoon" horiz-adv-x="1024">
<font-face units-per-em="1024" ascent="960" descent="-64" />
<missing-glyph horiz-adv-x="1024" />
<glyph unicode="&#x20;" horiz-adv-x="512" d="" />
<glyph unicode="&#xe900;" glyph-name="dollar" d="M508.112-3.939c140.62-0.488 255.149 112.848 256.133 253.465s-111.947 255.546-252.416 257.025c-55.211 0.316-104.781 33.899-125.546 85.056s-8.626 109.789 30.744 148.497c39.371 38.708 98.2 49.848 148.997 28.216s83.533-71.766 82.912-126.641h121.321c0 142.637-115.625 258.263-258.256 258.263s-258.256-115.625-258.257-258.068c0.889-141.758 116.372-256.038 258.598-255.444 75.289-0.855 135.629-62.581 134.777-137.87s-62.576-135.633-137.864-134.784c-75.289 0.849-135.636 62.569-134.791 137.528h-120.72c0.007-140.625 113.747-254.755 254.367-255.242zM193.685 251.296c-0.003 16.135 6.49 31.596 18.014 42.895s27.111 17.483 42.646 17.166l118.918-0.006c16.136 0.323 31.723-5.863 43.247-17.161s18.017-26.76 18.012-43.23c-0.473-42.122 33.288-76.653 75.411-77.128s76.654 33.285 77.131 75.407c0.477 42.122-33.282 76.656-74.937 77.132-174.881-0.735-317.346 140.246-318.443 315.313 0 175.801 142.515 318.316 318.316 318.316s318.316-142.515 318.316-318.31c0.003-16.139-6.49-31.6-18.014-42.899s-27.111-17.483-42.646-17.166l-119.519 0.006c-16.136-0.323-31.723 5.863-43.247 17.161s-18.017 26.76-18.012 43.231c0.348 30.888-17.967 58.935-46.386 71.038s-61.333 5.87-83.36-15.786c-22.027-21.655-28.818-54.458-17.2-83.079s39.35-47.41 70.384-47.587c173.699-1.829 313.202-143.799 311.986-317.503s-142.692-313.708-316.4-313.104c-173.708 0.603-314.209 141.586-314.219 315.294z" />
<glyph unicode="&#xe901;" glyph-name="info-icon" d="M512-64c-282.769 0-512 229.23-512 512s229.23 512 512 512c282.769 0 512-229.23 512-512s-229.23-512-512-512zM512-7.111c251.351 0 455.111 203.76 455.111 455.111s-203.76 455.111-455.111 455.111c-251.351 0-455.111-203.76-455.111-455.111s203.76-455.111 455.111-455.111zM505.628 646.088c0 19.084 4.387 33.509 13.161 43.27s21.194 14.643 37.264 14.643c13.484 0 23.734-3.4 30.754-10.201s10.528-16.562 10.528-29.285c0-17.55-4.064-31.753-12.191-42.612s-20.687-16.288-37.68-16.288c-27.891 0-41.836 13.491-41.836 40.473zM510.061 192.001h-83.394l65.662 367.877h83.394l-65.662-367.877z" />
<glyph unicode="&#xe902;" glyph-name="play" d="M972.817 447.998l-921.635-511.998v1024z" />
<glyph unicode="&#xe903;" glyph-name="search" d="M686.063 540.441c0-147.099-119.704-266.803-266.803-266.803s-266.803 119.704-266.803 266.803c0 147.099 119.704 266.803 266.803 266.803s266.803-119.704 266.803-266.803v0zM1023.998 43.495l-259.325 259.325c48.239 69.678 73.847 153.054 73.847 237.621 0 231.665-187.594 419.261-419.261 419.261s-419.261-187.594-419.261-419.261c0-231.665 187.594-419.261 419.261-419.261 84.566 0 167.942 25.608 237.621 73.847l259.325-258.729 107.792 107.198z" />
<glyph unicode="&#xe904;" glyph-name="cancel" d="M617.154 432.817l374.082 374.082-109.161 109.161-374.082-374.082-366.068 366.068-109.161-109.161 366.068-366.068-335.702-335.702 109.161-109.161 335.702 335.702 343.715-343.715 109.161 109.161-343.715 343.715z" />
<glyph unicode="&#xe905;" glyph-name="stop" d="M32 928h960v-960h-960z" />
<glyph unicode="&#xe906;" glyph-name="ico-lock" d="M663.164 618.667h-302.324v97.524c0 83.382 67.779 151.162 151.162 151.162s151.162-67.779 151.162-151.162v-97.524zM512.002 179.81c-53.638 0-97.524 43.886-97.524 97.524 0 53.687 43.886 97.524 97.524 97.524s97.524-43.837 97.524-97.524c0-53.638-43.886-97.524-97.524-97.524zM804.573 618.667h-48.762v97.524c0 134.582-109.227 243.81-243.81 243.81-134.533 0-243.81-109.227-243.81-243.81v-97.524h-48.762c-53.638 0-97.524-43.886-97.524-97.524v-487.619c0-53.638 43.886-97.524 97.524-97.524h585.143c53.638 0 97.524 43.886 97.524 97.524v487.619c0 53.638-43.886 97.524-97.524 97.524z" />
<glyph unicode="&#xe907;" glyph-name="ico-eye-inactive" d="M0 448.056l7.601 12.917c35.41 60.177 77.867 115.92 126.515 166.091 113.736 116.739 240.883 179.072 377.892 179.072 137.047 0 264.2-62.323 377.926-179.107 36.836-37.952 70.17-79.152 99.57-123.059 9.463-14.074 18.461-28.454 26.982-43.118l7.515-12.933-7.586-12.892c-35.41-60.177-77.867-115.92-126.515-166.091-113.736-116.739-240.883-179.072-377.892-179.072-137.020 0-264.11 62.292-377.988 179.119-47.909 49.424-89.845 104.306-125.034 163.673l-8.984 15.401zM170.705 304.643c104.816-107.529 219.249-163.617 341.302-163.617 122.039 0 236.525 56.126 341.204 163.569 42.28 43.603 79.619 91.717 111.352 143.468-5.636 9.253-11.483 18.385-17.546 27.402-27.713 41.388-59.106 80.189-93.767 115.901-104.679 107.495-219.165 163.609-341.242 163.609-122.039 0-236.525-56.126-341.204-163.569-42.266-43.59-79.597-91.689-111.323-143.421 31.715-51.722 69.025-99.807 111.225-143.341zM512.007 294.513c-84.769 0-153.487 68.719-153.487 153.487s68.719 153.487 153.487 153.487c84.769 0 153.487-68.719 153.487-153.487s-68.719-153.487-153.487-153.487zM512.007 345.675c56.512 0 102.325 45.812 102.325 102.325s-45.812 102.325-102.325 102.325c-56.512 0-102.325-45.812-102.325-102.325s45.812-102.325 102.325-102.325z" />
<glyph unicode="&#xe908;" glyph-name="ico-remove" d="M127.998 800h767.998v-704c0-70.693-57.307-127.999-127.999-127.999v0h-511.999c-70.693 0-127.999 57.307-127.999 127.999v0 704zM383.998 608c-35.346 0-64-28.654-64-64v0-319.999c0-35.346 28.654-64 64-64s64 28.654 64 64v0 319.999c0 35.346-28.654 64-64 64v0zM639.998 608c-35.346 0-64-28.654-64-64v0-319.999c0-35.346 28.654-64 64-64s64 28.654 64 64v0 319.999c0 35.346-28.654 64-64 64v0zM64 800h896c35.346 0 64-28.654 64-64s-28.654-64-64-64h-896c-35.346 0-64 28.654-64 64s28.654 64 64 64zM319.997 800c0 70.693 57.307 127.999 127.999 127.999v0h127.999c70.693 0 127.999-57.307 127.999-127.999v0z" />
<glyph unicode="&#xe909;" glyph-name="ico-pause" d="M256 960c60.594 0 109.714-49.121 109.714-109.714v0-804.572c0-60.594-49.121-109.714-109.714-109.714s-109.714 49.121-109.714 109.714v0 804.572c0 60.594 49.121 109.714 109.714 109.714v0zM768 960c60.594 0 109.714-49.121 109.714-109.714v0-804.572c0-60.594-49.121-109.714-109.714-109.714s-109.714 49.121-109.714 109.714v0 804.572c0 60.594 49.121 109.714 109.714 109.714v0z" />
<glyph unicode="&#xe90a;" glyph-name="ico-play" d="M878.642 384.803l-659.456-384.658c-10.561-6.266-23.28-9.969-36.864-9.969-40.396 0-73.143 32.747-73.143 73.143 0 0.008 0 0.015 0 0.023v-0.001 769.317c0 0.006 0 0.014 0 0.022 0 40.396 32.747 73.143 73.143 73.143 13.584 0 26.303-3.703 37.203-10.155l-0.339 0.186 659.383-384.731c21.838-12.923 36.253-36.358 36.253-63.159s-14.415-50.235-35.914-62.973l-0.339-0.186z" />
<glyph unicode="&#xe90b;" glyph-name="ico-ufr" d="M512 960c282.752 0 512-229.248 512-512 0-282.795-229.248-512-512-512-282.795 0-512 229.205-512 512 0 282.752 229.205 512 512 512zM479.445 817.536c-7.125-46.165-23.296-87.68-47.104-127.104-38.613-63.915-88.832-120.235-127.403-184.107-20.48-33.963-41.472-68.48-45.781-109.312-15.829-41.813-16.213-84.309-9.685-128.213 7.893-52.693 30.037-97.877 69.12-133.547 66.347-60.416 148.011-76.8 235.392-69.717 33.795 2.72 64.752 12.673 92.042 28.301l-1.076-0.567c101.632 58.197 134.827 176.981 107.307 275.328-22.869 81.621-76.672 129.621-157.952 122.88-26.155-2.219-65.365-18.517-77.013-34.859 53.333-14.933 91.008-47.403 111.616-98.432 21.163-52.224 18.389-104.576 0.384-157.141-18.517-53.845-90.795-100.949-141.483-91.307-88.021 16.64-151.296 120.192-127.019 205.739 29.013 102.357 107.52 169.515 170.752 252.757 33.195 43.733 58.88 90.752 56.277 147.669-1.451 32.043-11.435 62.208-27.392 89.771-22.912 39.68-51.627 75.136-88.491 110.72 7.467-36.395 12.544-66.347 7.509-98.859zM664.789 551.339c34.133-41.472 84.651-70.869 101.205-126.848l0.128 6.144v0.341c0 0.023 0 0.049 0 0.076 0 1.205-0.062 2.396-0.183 3.57l0.012-0.147c-5.845 55.168-32 100.736-66.859 143.36-23.168 28.245-49.835 56.107-47.573 97.792-31.957-45.141-14.677-90.325 13.269-124.288zM248.448 519.339c-22.912-46.165-34.987-93.952-35.115-143.659v-1.451c0-12.928 0.853-26.027 2.56-39.211 4.352 52.053 21.504 99.84 43.136 146.645 19.2 41.472 33.28 84.224 15.232 130.347 1.067-33.536-11.477-63.701-25.813-92.629zM504.875 163.072c-14.507-3.413-31.061-0.555-43.947-10.667 46.336-27.349 103.808 0.853 125.397 30.72 18.219 25.259 15.36 62.293-7.339 78.549 4.693-45.483-19.541-85.675-74.069-98.56zM334.464 602.496c22.016 13.227 33.835 30.379 45.397 50.347 20.053 34.688 2.56 61.739-48.128 74.965 29.653-40.747 18.091-82.219 2.731-125.312zM541.141 517.504c63.232 19.84 72.576 28.587 49.749 72.875-2.645-32.64-30.123-48.981-49.749-72.875z" />
<glyph unicode="&#xe90c;" glyph-name="ico-ethereum" d="M518.496 318.464v208.576l203.872-89.28-203.84-119.296zM518.496 108.768v167.744l202.336 118.496-202.336-286.24zM518.496 786.368l199.936-332.576-199.936 87.584v244.992zM505.376 541.376l-197.12-86.336 197.12 331.2v-244.864zM505.376 318.464l-203.712 119.36 203.68 89.216v-208.576zM505.376 108.768l-202.336 286.24 202.304-118.496v-167.712zM512 960c-282.784 0-512-229.248-512-512 0-282.784 229.216-512 512-512 282.752 0 512 229.216 512 512 0 282.752-229.248 512-512 512z" />
<glyph unicode="&#xe90d;" glyph-name="ico-remove-type-2" d="M170.667 675.556h682.667v-625.778c0-62.838-50.94-113.778-113.778-113.778h-455.111c-62.838 0-113.778 50.94-113.778 113.778v625.778zM227.556 618.667v-568.889c0-31.419 25.47-56.889 56.889-56.889h455.111c31.419 0 56.889 25.47 56.889 56.889v568.889h-568.889zM28.444 618.667h967.111c15.709 0 28.444 12.735 28.444 28.444s-12.735 28.444-28.444 28.444h-967.111c-15.709 0-28.444-12.735-28.444-28.444s12.735-28.444 28.444-28.444zM398.222 419.556v-227.556c0-15.709 12.735-28.444 28.444-28.444s28.444 12.735 28.444 28.444v227.556c0 15.709-12.735 28.444-28.444 28.444s-28.444-12.735-28.444-28.444zM568.889 419.556v-227.556c0-15.709 12.735-28.444 28.444-28.444s28.444 12.735 28.444 28.444v227.556c0 15.709-12.735 28.444-28.444 28.444s-28.444-12.735-28.444-28.444zM341.333 675.556v142.222c0 47.128 38.205 85.333 85.333 85.333h170.667c47.128 0 85.333-38.205 85.333-85.333v-142.222h56.889v142.222c0 78.547-63.675 142.222-142.222 142.222h-170.667c-78.547 0-142.222-63.675-142.222-142.222v-142.222h56.889z" />
<glyph unicode="&#xe90e;" glyph-name="ico-edit" d="M1024.006 675.556l-739.556-739.556h-284.451v284.451l739.556 739.556 284.451-284.451zM739.556 879.553l-682.667-682.667v-203.997h203.997l682.667 682.667-203.997 203.997zM76.757 240.8c77.859-75.993 154.615-153.11 230.241-231.325l-40.609-39.838-229.66 230.741 40.028 40.422zM589.027 752.533l228.238-228.807-40.277-40.176-228.238 228.807z" />
<glyph unicode="&#xe90f;" glyph-name="ico-remove-file" d="M121.904 764.952h780.188v-731.427c0-53.861-43.663-97.524-97.524-97.524h-585.142c-53.861 0-97.524 43.663-97.524 97.524v731.427zM170.667 716.191v-682.665c0-26.93 21.831-48.762 48.762-48.762h585.142c26.93 0 48.762 21.831 48.762 48.762v682.665h-682.665zM24.381 716.191h975.236c13.465 0 24.381 10.916 24.381 24.381s-10.916 24.381-24.381 24.381h-975.236c-13.465 0-24.381-10.916-24.381-24.381s10.916-24.381 24.381-24.381zM365.713 472.382v-292.57c0-13.465 10.916-24.381 24.381-24.381s24.381 10.916 24.381 24.381v292.57c0 13.465-10.916 24.381-24.381 24.381s-24.381-10.916-24.381-24.381zM609.523 472.382v-292.57c0-13.465 10.916-24.381 24.381-24.381s24.381 10.916 24.381 24.381v292.57c0 13.465-10.916 24.381-24.381 24.381s-24.381-10.916-24.381-24.381zM316.952 740.571v97.524c0 40.396 32.747 73.143 73.143 73.143h243.81c40.396 0 73.143-32.747 73.143-73.143v-97.524h48.762v97.524c0 67.326-54.579 121.905-121.905 121.905h-243.81c-67.326 0-121.905-54.579-121.905-121.905v-97.524h48.762z" />
<glyph unicode="&#xe910;" glyph-name="ico-find-f-ile" d="M358.399-12.8h-153.6c-70.692 0-128 57.308-128 128v529.562c-0.002 47.539 18.886 93.13 52.506 126.74l84.79 84.79c33.612 33.623 79.203 52.51 126.742 52.508h478.363c33.948 0 66.505-13.486 90.51-37.49s37.49-56.562 37.49-90.51v-102.4h51.2v102.4c0 47.527-18.88 93.107-52.486 126.714s-79.187 52.486-126.714 52.486h-478.362c-61.12 0.002-119.737-24.282-162.949-67.507l-84.784-84.784c-43.223-43.21-67.507-101.827-67.504-162.948v-529.561c0-98.969 80.231-179.2 179.2-179.2h153.6v51.2zM614.399 89.6c-155.523 0-281.6 126.077-281.6 281.6s126.077 281.6 281.6 281.6c155.523 0 281.6-126.077 281.6-281.6s-126.077-281.6-281.6-281.6zM614.399 140.8c127.246 0 230.4 103.154 230.4 230.4s-103.154 230.4-230.4 230.4c-127.246 0-230.4-103.154-230.4-230.4s103.154-230.4 230.4-230.4zM990.901 30.902l-179.2 179.2c-9.997 9.997-26.206 9.997-36.204 0s-9.997-26.206 0-36.204l179.2-179.2c9.997-9.997 26.206-9.997 36.204 0s9.997 26.206 0 36.204z" />
<glyph unicode="&#xe911;" glyph-name="ico-upload" d="M511.953 960l-372.364-372.364h279.273v-372.364h186.275v372.364h279.273l-372.457 372.364zM139.589-64h744.727v186.182h-744.727v-186.182z" />
<glyph unicode="&#xe912;" glyph-name="ico-search" d="M473.504 12.993c-261.508 0-473.504 211.994-473.504 473.504s211.994 473.504 473.504 473.504c261.508 0 473.504-211.994 473.504-473.504s-211.994-473.504-473.504-473.504zM473.504 113.084c206.23 0 373.413 167.183 373.413 373.413s-167.183 373.413-373.413 373.413c-206.23 0-373.413-167.183-373.413-373.413s167.183-373.413 373.413-373.413zM1009.341 21.433l-192.481 192.481c-19.544 19.544-51.23 19.544-70.775 0s-19.544-51.23 0-70.775l192.481-192.481c19.544-19.544 51.23-19.544 70.775 0s19.544 51.23 0 70.775z" />
<glyph unicode="&#xe913;" glyph-name="ico-settings" d="M512 304c-79.2 0-144 64.848-144 144 0 79.2 64.8 144 144 144s144-64.8 144-144c0-79.152-64.8-144-144-144zM879.2 401.2c1.872 15.024 3.072 30.576 3.072 46.8s-1.2 31.776-3.696 46.8l104.304 79.2c5.593 4.497 9.143 11.339 9.143 19.010 0 4.257-1.093 8.258-3.013 11.739l0.064-0.126-98.736 166.176c-6.192 10.8-19.152 14.4-30.24 10.8l-122.832-48c-24.043 18.2-51.51 33.924-80.895 45.922l-2.434 0.878-18.528 127.2c-2.021 11.655-12.058 20.406-24.139 20.406-0.188 0-0.375-0.002-0.562-0.007l0.028 0.001h-197.472c-0.158 0.004-0.345 0.006-0.533 0.006-11.948 0-21.841-8.802-23.548-20.275l-0.016-0.13-18.48-127.2c-30.24-12-58.032-28.176-83.328-46.8l-122.832 48c-2.612 1.025-5.635 1.619-8.798 1.619-9.126 0-17.096-4.944-21.379-12.301l-0.064-0.118-98.736-166.176c-2.14-3.413-3.41-7.563-3.41-12.008 0-7.651 3.76-14.423 9.533-18.57l0.068-0.047 104.304-79.2c-2.496-15.024-4.32-31.2-4.32-46.8s1.2-31.776 3.696-46.8l-104.304-79.2c-5.582-4.497-9.124-11.333-9.124-18.996 0-4.243 1.086-8.233 2.995-11.707l-0.064 0.126 98.736-166.224c4.538-7.397 12.58-12.256 21.758-12.256 3.040 0 5.957 0.533 8.66 1.512l-0.177-0.056 122.832 48c25.92-19.2 53.088-34.8 83.328-46.8l18.528-127.2c2.4-12 12.336-20.4 24.672-20.4h197.472c12.336 0 22.848 8.4 24.096 20.4l18.48 127.2c31.816 13 59.272 28.715 84.294 47.494l-0.967-0.694 122.832-48c11.088-4.224 24.048 0 30.24 10.8l98.736 166.224c2.127 3.406 3.389 7.543 3.389 11.975 0 7.642-3.752 14.408-9.514 18.555l-0.068 0.047-103.056 79.2z" />
<glyph unicode="&#xe914;" glyph-name="ico-wallet" d="M645.333 448c0 44.267 35.734 80 80 80s80-35.734 80-80-35.734-80-80-80-80 35.734-80 80zM512 234.666h480v426.667h-480v-426.667zM992 128v-53.333c0-58.667-48-106.667-106.667-106.667h-746.666c-58.911 0-106.667 47.756-106.667 106.667v0 746.666c0 58.911 47.756 106.667 106.667 106.667v0h746.666c58.667 0 106.667-48 106.667-106.667v-53.333h-480c-58.911 0-106.667-47.756-106.667-106.667v0-426.667c0-58.911 47.756-106.667 106.667-106.667v0h480z" />
<glyph unicode="&#xe915;" glyph-name="ico-completed" d="M145.067 821.333l43.733 53.333h640l49.6-53.333h-733.333zM405.334 147.467l-213.334 213.334 75.2 75.2 138.133-137.6 351.467 351.467 75.2-75.733-426.667-426.667zM968.001 809.6l-74.134 89.6c-14.873 17.658-36.995 28.8-61.719 28.8-0.052 0-0.103 0-0.156 0h-639.992c-25.067 0-46.933-11.2-61.333-29.333l-74.134-89.066c-15.467-18.667-24.533-42.133-24.533-68.267v-666.667c0-58.911 47.756-106.667 106.667-106.667v0h746.666c58.613 0 106.667 48 106.667 106.667v666.667c0 26.134-9.067 49.6-24 68.267z" />
<glyph unicode="&#xe916;" glyph-name="ico-download" d="M725.334 501.333h-106.667v213.334h-213.334v-213.334h-106.667l213.334-213.334 213.334 213.334zM885.333 288h-213.334c0-88.534-72-160-160-160s-160 71.467-160 160h-213.866v533.333h747.2v-533.333zM885.333 928h-747.2c-59.2 0-105.6-48-105.6-106.667l-0.533-746.666c0-58.667 46.933-106.667 106.133-106.667h747.2c58.667 0 106.667 48 106.667 106.667v746.666c0 58.667-48 106.667-106.667 106.667z" />
<glyph unicode="&#xe917;" glyph-name="ico-upload-active" d="M145.066 821.333l43.733 53.333h640l49.6-53.333h-733.333zM512 634.667l293.333-293.333h-186.667v-160h-213.334v160h-186.667l293.333 293.333zM968 809.6l-74.134 89.6c-14.873 17.658-36.995 28.8-61.719 28.8-0.052 0-0.103 0-0.156 0h-639.992c-25.067 0-46.933-11.2-61.333-29.333l-74.134-89.066c-15.467-18.667-24.533-42.133-24.533-68.267v-666.667c0-58.911 47.756-106.667 106.667-106.667v0h746.666c58.613 0 106.667 48 106.667 106.667v666.667c0 26.134-9.067 49.6-24 68.267z" />
<glyph unicode="&#xe918;" glyph-name="ico2-add-file" horiz-adv-x="1044" d="M183.118 949.657h659.219c101.081-0.117 182.995-80.067 183.115-178.728v-643.421c-0.12-98.661-82.034-178.612-183.115-178.728h-659.219c-101.082 0.116-182.995 80.067-183.115 178.728v643.421c0.12 98.66 82.033 178.61 183.115 178.728zM73.248 127.508c0-59.225 49.19-107.237 109.87-107.237h659.219c60.679 0 109.869 48.012 109.869 107.237v643.421c0 59.225-49.19 107.237-109.869 107.237h-659.219c-60.679 0-109.87-48.012-109.87-107.237v-643.421zM329.614 484.966h146.494v142.983c0 19.743 16.396 35.748 36.623 35.748s36.625-16.005 36.625-35.748v-142.983h146.49c20.227 0 36.625-16.005 36.625-35.746 0-19.743-16.398-35.746-36.625-35.746h-146.492v-142.983c0-19.743-16.398-35.748-36.625-35.748s-36.621 16.007-36.621 35.748v142.983h-146.494c-20.227 0-36.623 16.005-36.623 35.748 0 19.741 16.398 35.744 36.623 35.744z" />
<glyph unicode="&#xe919;" glyph-name="ico2-completed-downloads" horiz-adv-x="970" d="M7.319 588.098c-5.389-6.304-7.994-14.724-7.17-23.17l58.737-602.002c1.493-15.295 13.703-26.926 28.272-26.926h795.789c14.293 0 26.365 11.21 28.187 26.171l58.74 482.001c1.040 8.554-1.455 17.166-6.85 23.642s-13.166 10.186-21.337 10.186h-144.001v272c0 7.956-2.997 15.586-8.327 21.214l-170.528 180c-5.325 5.626-12.552 8.786-20.092 8.786h-397.896c-15.696 0-28.421-13.432-28.421-30v-332h-144c-8.045 0-15.711-3.598-21.102-9.902zM627.157 857.574l73.491-77.574h-73.491v77.574zM229.263 900h341.051v-150c0-16.568 12.725-30 28.424-30h142.104v-242h-397.895v30c0 49.626-38.249 90-85.263 90h-28.421v302zM257.684 538c15.672 0 28.421-13.458 28.421-30v-60c0-16.568 12.725-29.998 28.421-29.998h594.845l-51.426-422.001h-745.142l-52.884 541.999h197.765zM464.957 126.787c11.097-11.717 29.093-11.717 40.193 0l113.686 120.002c11.097 11.711 11.097 30.709 0 42.426-11.102 11.711-29.098 11.711-40.195 0l-93.588-98.789-36.746 38.788c-11.097 11.717-29.093 11.717-40.193 0s-11.1-30.709 0-42.426l56.843-60.001z" />
<glyph unicode="&#xe91a;" glyph-name="ico2-copy" horiz-adv-x="960" d="M649.37-14.163h-499.992c-60.681 0-110.002 50.054-110.002 111.629v547.964c0 61.576 49.321 111.618 110.002 111.618h19.996c16.56 0 30-13.638 30-30.443s-13.44-30.442-30-30.442h-19.996c-27.561 0-50.003-22.765-50.003-50.733v-547.964c0-27.968 22.442-50.739 50.003-50.739h499.992c27.565 0 50.003 22.771 50.003 50.739v20.288c0 16.806 13.44 30.445 30.003 30.445 16.557 0 29.997-13.638 29.997-30.445v-20.288c0-61.574-49.318-111.629-110.003-111.629zM809.376 229.382h-419.999c-60.681 0-110.003 50.048-110.003 111.623v507.37c0 61.576 49.322 111.625 110.003 111.625h419.999c60.685 0 109.997-50.049 109.997-111.625v-507.37c0-61.575-49.312-111.623-109.997-111.623zM389.377 899.115c-27.561 0-50.003-22.773-50.003-50.74v-507.37c0-27.969 22.442-50.74 50.003-50.74h419.999c27.565 0 49.997 22.771 49.997 50.74v507.37c0 27.967-22.432 50.74-49.997 50.74h-419.999z" />
<glyph unicode="&#xe91b;" glyph-name="ico2-download-file" horiz-adv-x="704" d="M311.162 119.162c0.008-0.006 0.016-0.013 0.024-0.019 0.986-0.986 2.024-1.92 3.102-2.803 0.494-0.41 1.016-0.762 1.524-1.139 0.606-0.454 1.2-0.928 1.83-1.35 0.608-0.403 1.238-0.755 1.862-1.126 0.572-0.346 1.13-0.704 1.718-1.018 0.636-0.339 1.29-0.627 1.94-0.934 0.612-0.288 1.216-0.595 1.844-0.851 0.63-0.262 1.274-0.474 1.914-0.704 0.674-0.237 1.338-0.499 2.026-0.704 0.64-0.198 1.29-0.339 1.938-0.499 0.702-0.179 1.396-0.378 2.112-0.518 0.75-0.147 1.506-0.237 2.26-0.339 0.622-0.090 1.236-0.211 1.866-0.275 2.8-0.275 5.622-0.275 8.422 0 0.63 0.064 1.244 0.179 1.866 0.275 0.754 0.102 1.51 0.192 2.26 0.339 0.716 0.141 1.41 0.339 2.112 0.518 0.646 0.16 1.298 0.301 1.938 0.499 0.688 0.205 1.354 0.467 2.026 0.704 0.64 0.23 1.284 0.442 1.914 0.704 0.628 0.256 1.232 0.563 1.844 0.851 0.65 0.307 1.304 0.595 1.94 0.934 0.588 0.314 1.146 0.678 1.718 1.018 0.624 0.371 1.254 0.723 1.862 1.126 0.63 0.422 1.224 0.896 1.83 1.35 0.508 0.378 1.030 0.73 1.524 1.139 1.078 0.883 2.116 1.818 3.102 2.803 0.008 0.006 0.016 0.013 0.024 0.019l298.665 298.668c16.666 16.662 16.666 43.678 0 60.34-16.659 16.662-43.677 16.662-60.339 0l-225.832-225.831v664.995c0 23.564-19.102 42.666-42.666 42.666s-42.666-19.102-42.666-42.666v-664.995l-225.83 225.831c-16.662 16.662-43.678 16.662-60.34 0s-16.662-43.678 0-60.34l298.666-298.668zM639.998 21.344h-597.332c-23.564 0-42.666-19.104-42.666-42.669 0-23.558 19.102-42.662 42.666-42.662h597.334c23.565 0 42.669 19.098 42.669 42.662s-19.104 42.669-42.671 42.669z" />
<glyph unicode="&#xe91c;" glyph-name="ico2-downloads" horiz-adv-x="666" d="M285.538 116.091c0.007-0.010 0.015-0.015 0.022-0.020 0.905-0.957 1.858-1.864 2.847-2.724 0.453-0.394 0.932-0.737 1.398-1.106 0.556-0.44 1.101-0.896 1.679-1.306 0.558-0.394 1.136-0.737 1.709-1.096 0.525-0.333 1.037-0.681 1.576-0.988 0.584-0.328 1.184-0.609 1.78-0.906 0.562-0.282 1.116-0.579 1.692-0.829 0.579-0.251 1.169-0.456 1.757-0.681 0.618-0.23 1.228-0.481 1.859-0.686 0.587-0.189 1.184-0.323 1.778-0.481 0.645-0.174 1.281-0.364 1.938-0.502 0.688-0.143 1.382-0.23 2.074-0.333 0.571-0.087 1.135-0.205 1.713-0.261 2.569-0.271 5.159-0.271 7.728 0 0.578 0.056 1.142 0.174 1.713 0.261 0.692 0.102 1.385 0.189 2.074 0.333 0.657 0.138 1.294 0.328 1.938 0.502 0.592 0.159 1.191 0.292 1.778 0.481 0.631 0.205 1.243 0.456 1.859 0.686 0.587 0.225 1.178 0.43 1.757 0.681 0.576 0.251 1.13 0.548 1.692 0.829 0.596 0.297 1.197 0.579 1.78 0.906 0.539 0.307 1.052 0.655 1.576 0.988 0.572 0.358 1.15 0.701 1.709 1.096 0.578 0.41 1.123 0.865 1.679 1.306 0.466 0.369 0.945 0.712 1.398 1.106 0.989 0.86 1.942 1.766 2.847 2.724 0.007 0.005 0.015 0.010 0.022 0.020l274.068 289.869c15.293 16.169 15.293 42.392 0 58.563-15.288 16.172-40.079 16.172-55.368 0l-207.235-219.177v645.408c0 22.87-17.529 41.409-39.153 41.409s-39.152-18.539-39.152-41.409v-645.408l-207.233 219.177c-15.29 16.172-40.081 16.172-55.371 0s-15.29-42.394 0-58.563l274.070-289.869zM587.29 21.135h-548.137c-21.623 0-39.152-18.54-39.152-41.405 0-22.871 17.529-41.411 39.152-41.411h548.142c21.622 0 39.153 18.54 39.153 41.405 0 22.871-17.531 41.411-39.158 41.411z" />
<glyph unicode="&#xe91d;" glyph-name="ico2-edit" d="M898.406 901.694c-53.46 53.361-140.017 53.361-193.476 0l-48.43-48.696-516.633-516.367c-0.266-0.266-0.266-0.548-0.548-0.548-0.548-0.822-1.37-1.635-1.909-2.457 0-0.274-0.282-0.274-0.282-0.548-0.548-0.821-0.813-1.369-1.37-2.191-0.265-0.274-0.265-0.539-0.539-0.821-0.274-0.822-0.548-1.369-0.83-2.191 0-0.266-0.266-0.266-0.266-0.548l-114.382-343.959c-3.355-9.794-0.805-20.641 6.565-27.904 5.179-5.113 12.163-7.973 19.43-7.943 2.97 0.051 5.915 0.512 8.757 1.368l343.695 114.659c0.265 0 0.265 0 0.548 0.263 0.864 0.256 1.695 0.622 2.456 1.104 0.214 0.022 0.402 0.117 0.557 0.263 0.813 0.549 1.909 1.104 2.73 1.653 0.813 0.541 1.644 1.36 2.465 1.909 0.274 0.285 0.54 0.285 0.54 0.549 0.282 0.271 0.83 0.541 1.104 1.097l563.971 563.966c53.358 53.455 53.358 140.018 0 193.464l-74.152 73.878zM389.432 127.854l-190.452 190.442 476.676 476.676 190.45-190.443-476.675-476.676zM172.154 267.674l166.382-166.371-249.838-83.185 83.457 249.557zM933.976 672.664l-29.008-29.283-190.459 190.46 29.289 29.274c32.044 32.013 83.975 32.013 116.019 0l74.43-74.426c31.795-32.184 31.678-83.996-0.271-116.026z" />
<glyph unicode="&#xe91e;" glyph-name="ico2-file-flow-size" horiz-adv-x="872" d="M593.321 952.086c-5.048 4.945-11.969 7.914-19.141 7.914h-429.505c-79.255 0-144.674-60.601-144.674-134.305v-755.384c0-73.709 65.42-134.311 144.674-134.311h582.946c79.258 0 144.676 60.602 144.676 134.311v599.806c0 6.43-3.193 12.609-7.71 17.312l-271.265 264.656zM601.035 872.687l181.642-177.344h-118.082c-35.104 0-63.56 26.219-63.56 58.867v118.476zM727.62-14.529h-582.946c-49.728 0-91.485 38.336-91.485 84.84v755.384c0 46.25 41.488 84.836 91.485 84.836h403.17v-156.32c0-60.102 52.129-108.336 116.751-108.336h154.51v-575.564c0-46.505-41.487-84.84-91.485-84.84zM655.022 156.13h-437.743c-14.625 0-26.595-11.124-26.595-24.735 0-13.6 11.97-24.735 26.595-24.735h438.012c14.624 0 26.597 11.135 26.597 24.735 0 13.612-11.973 24.735-26.867 24.735zM416.741 244.929c5.056-4.946 11.969-7.911 19.41-7.911 7.452 0 14.363 2.966 19.414 7.911l155.845 155.58c10.103 9.899 9.307 25.725-1.327 34.877-10.642 9.398-27.663 8.662-37.497-1.236l-109.841-109.572v270.096c0 13.609-11.969 24.734-26.594 24.734s-26.594-11.125-26.594-24.734v-270.096l-109.571 109.572c-10.105 9.891-26.864 10.634-37.498 1.236-10.634-9.402-11.432-24.986-1.327-34.877l155.579-155.58z" />
<glyph unicode="&#xe921;" glyph-name="ico2-settings" horiz-adv-x="973" d="M900.516 165.427h-104.264c-16.952 59.668-68.792 103.521-130.652 103.521s-113.664-43.853-130.652-103.521h-495.796c-21.612 0-39.152-18.555-39.152-41.416 0-22.856 17.54-41.405 39.152-41.405h495.791c16.952-59.674 68.792-103.526 130.652-103.526s113.664 43.853 130.652 103.526h104.269c21.647 0 39.148 18.55 39.148 41.405 0 22.861-17.495 41.416-39.148 41.416zM665.6 61.901c-32.384 0-58.732 27.868-58.732 62.111 0 34.248 26.348 62.116 58.732 62.116 32.379 0 58.726-27.868 58.726-62.116 0-34.243-26.348-62.111-58.726-62.111zM900.521 827.988h-104.269c-16.993 59.671-68.792 103.525-130.652 103.525s-113.659-43.854-130.652-103.525h-495.795c-21.612 0-39.152-18.551-39.152-41.41s17.54-41.41 39.152-41.41h495.795c16.993-59.673 68.792-103.526 130.652-103.526 61.865 0 113.664 43.853 130.652 103.524h104.269c21.647 0 39.153 18.551 39.153 41.41s-17.505 41.412-39.153 41.412zM665.6 724.463c-32.379 0-58.726 27.869-58.726 62.115s26.348 62.115 58.726 62.115c32.384 0 58.732-27.869 58.732-62.115s-26.353-62.115-58.732-62.115zM900.516 496.713h-495.793c-16.993 59.672-68.792 103.525-130.652 103.525s-113.661-43.853-130.653-103.525h-104.266c-21.612 0-39.152-18.551-39.152-41.41 0-22.858 17.54-41.407 39.152-41.407h104.265c16.993-59.674 68.792-103.526 130.652-103.526s113.661 43.853 130.652 103.526h495.795c21.647 0 39.148 18.55 39.148 41.407 0.005 22.859-17.495 41.41-39.148 41.41zM274.069 393.19c-32.38 0-58.729 27.868-58.729 62.113 0 34.247 26.349 62.115 58.729 62.115s58.729-27.868 58.729-62.115c0-34.245-26.35-62.113-58.729-62.113z" />
<glyph unicode="&#xe922;" glyph-name="ico2-smart-contract-bal" horiz-adv-x="1138" d="M1115.982 616.593c-14.169 14.931-32.696 24.885-53.403 24.885 1.092 0 2.181 0 3.269 0v128.155c0 52.257-18.527 99.538-49.042 134.376s-71.927 55.99-117.699 55.99h-732.363c-45.772 0-87.186-21.152-117.701-55.99s-49.042-82.119-49.042-134.376v-643.268c0-52.254 18.527-99.537 49.042-134.375s71.929-55.99 117.701-55.99h732.363c45.773 0 87.184 21.151 117.699 55.99s49.042 82.121 49.042 134.375v129.399c-1.088 0-2.177 0-3.269 0 20.708 0 39.234 9.956 53.403 24.887 13.077 14.931 21.796 37.327 21.796 60.966v214.008c0 23.639-8.719 44.792-21.796 60.967zM1005.909 127.609c0-33.591-11.988-63.454-31.604-85.849-19.619-22.395-45.773-36.083-75.2-36.083h-732.363c-29.425 0-55.581 13.687-75.198 36.083s-31.605 52.258-31.605 85.849v642.024c0 33.594 11.988 63.456 31.605 85.852s45.773 36.083 75.198 36.083h732.363c29.427 0 55.58-13.687 75.2-36.083 19.615-22.396 31.604-52.258 31.604-85.852v-128.155h-337.848c-45.773 0-86.096-21.152-116.611-54.746-29.423-33.593-47.95-80.876-47.95-133.134v-8.708c0-52.258 18.527-98.296 47.95-133.131 29.427-33.595 70.838-54.746 116.611-54.746h337.848v-129.403zM1077.836 341.618c0-4.976-2.177-9.952-4.358-12.443-3.269-3.732-6.538-4.976-10.9-4.976h-394.517c-28.334 0-55.58 13.687-74.107 34.839s-30.515 52.258-30.515 84.609v8.708c0 33.595 11.988 63.458 30.515 84.609 19.619 22.395 45.773 34.839 74.107 34.839h394.517c4.361 0 8.719-2.488 10.9-4.98 3.269-3.732 4.358-7.464 4.358-12.44v-212.764zM675.692 504.616c-13.077 0-25.065-6.22-33.784-16.175-8.719-9.952-14.165-23.639-14.165-38.571s5.446-28.619 14.165-38.571c8.719-9.956 20.708-16.175 33.784-16.175 13.081 0 25.065 6.22 34.877 16.175 8.719 9.952 14.165 23.639 14.165 39.815 0 14.931-5.446 28.619-14.165 39.815-9.811 7.468-21.796 13.687-34.877 13.687z" />
<glyph unicode="&#xe923;" glyph-name="ico2-token-bal" horiz-adv-x="1138" d="M1115.982 616.593c-14.169 14.931-32.696 24.885-53.403 24.885 1.092 0 2.181 0 3.269 0v128.155c0 52.257-18.527 99.538-49.042 134.376s-71.927 55.99-117.699 55.99h-732.363c-45.772 0-87.186-21.152-117.701-55.99s-49.042-82.119-49.042-134.376v-643.268c0-52.254 18.527-99.537 49.042-134.375s71.929-55.99 117.701-55.99h732.363c45.773 0 87.184 21.151 117.699 55.99s49.042 82.121 49.042 134.375v129.399c-1.088 0-2.177 0-3.269 0 20.708 0 39.234 9.956 53.403 24.887 13.077 14.931 21.796 37.327 21.796 60.966v214.008c0 23.639-8.719 44.792-21.796 60.967zM1005.909 127.609c0-33.591-11.988-63.454-31.604-85.849-19.619-22.395-45.773-36.083-75.2-36.083h-732.363c-29.425 0-55.581 13.687-75.198 36.083s-31.605 52.258-31.605 85.849v642.024c0 33.594 11.988 63.456 31.605 85.852s45.773 36.083 75.198 36.083h732.363c29.427 0 55.58-13.687 75.2-36.083 19.615-22.396 31.604-52.258 31.604-85.852v-128.155h-337.848c-45.773 0-86.096-21.152-116.611-54.746-29.423-33.593-47.95-80.876-47.95-133.134v-8.708c0-52.258 18.527-98.296 47.95-133.131 29.427-33.595 70.838-54.746 116.611-54.746h337.848v-129.403zM1077.836 341.618c0-4.976-2.177-9.952-4.358-12.443-3.269-3.732-6.538-4.976-10.9-4.976h-394.517c-28.334 0-55.58 13.687-74.107 34.839s-30.515 52.258-30.515 84.609v8.708c0 33.595 11.988 63.458 30.515 84.609 19.619 22.395 45.773 34.839 74.107 34.839h394.517c4.361 0 8.719-2.488 10.9-4.98 3.269-3.732 4.358-7.464 4.358-12.44v-212.764z" />
<glyph unicode="&#xe924;" glyph-name="ico2-upload-file" horiz-adv-x="740" d="M378.791 947.229c-1.005 1.006-2.088 1.984-3.187 2.891-0.504 0.415-1.036 0.775-1.554 1.166-0.618 0.464-1.224 0.945-1.866 1.377-0.62 0.415-1.262 0.775-1.898 1.156-0.583 0.35-1.152 0.716-1.752 1.037-0.649 0.348-1.315 0.642-1.978 0.955-0.624 0.297-1.24 0.61-1.88 0.876-0.642 0.266-1.299 0.483-1.952 0.716-0.687 0.248-1.364 0.511-2.066 0.724-0.653 0.198-1.315 0.344-1.976 0.509-0.716 0.182-1.423 0.383-2.153 0.528-0.765 0.151-1.536 0.241-2.305 0.352-0.634 0.090-1.26 0.213-1.902 0.276-2.855 0.282-5.733 0.282-8.587 0-0.642-0.063-1.269-0.184-1.902-0.276-0.769-0.11-1.54-0.201-2.305-0.352-0.73-0.145-1.438-0.346-2.153-0.528-0.659-0.166-1.324-0.311-1.976-0.509-0.701-0.213-1.38-0.477-2.066-0.724-0.653-0.235-1.309-0.45-1.951-0.716s-1.256-0.579-1.88-0.876c-0.663-0.313-1.329-0.608-1.978-0.955-0.6-0.321-1.168-0.689-1.752-1.037-0.637-0.38-1.279-0.741-1.899-1.156-0.642-0.432-1.248-0.912-1.866-1.377-0.518-0.389-1.050-0.751-1.554-1.166-1.099-0.906-2.157-1.86-3.163-2.868l-304.547-305.508c-16.989-17.042-16.989-44.675 0-61.718s44.535-17.043 61.523 0l230.261 230.986-0.001-623.29c0-24.098 19.477-43.639 43.503-43.639s43.502 19.541 43.502 43.639l0.001 623.29 230.257-230.986c16.987-17.043 44.533-17.043 61.525 0 16.987 17.042 16.987 44.675 0 61.718l-304.524 305.485zM652.544 30.293h-609.041c-24.026 0-43.503-19.541-43.503-43.639 0-24.104 19.477-43.645 43.503-43.645h609.047c24.024 0 43.503 19.541 43.503 43.639 0 24.104-19.479 43.645-43.509 43.645z" />
<glyph unicode="&#xe925;" glyph-name="ico2-uploads" horiz-adv-x="768" d="M513.971 932.812h-354.179c-26.472 0-47.931-21.996-47.931-49.131s21.458-49.132 47.931-49.132h238.462l-384.215-393.841c-18.719-19.19-18.719-50.299 0-69.484 18.717-19.185 49.064-19.19 67.784 0l384.218 393.843v-244.436c0-27.135 21.458-49.132 47.93-49.132 26.47 0 47.928 21.996 47.928 49.132v363.049c0 26.74-21.197 49.131-47.928 49.131zM753.961 521.597c-18.719 19.186-49.065 19.188-67.784 0l-384.216-393.843v244.439c0 27.131-21.458 49.132-47.93 49.132s-47.931-22.001-47.931-49.132v-363.049c0-26.696 21.217-49.132 47.931-49.132h354.179c26.47 0 47.928 21.996 47.928 49.132 0 27.131-21.458 49.132-47.928 49.132h-238.465l384.216 393.84c18.719 19.188 18.719 50.296 0 69.482z" />
<glyph unicode="&#xe926;" glyph-name="ico2-wallet" horiz-adv-x="1078" d="M1057.248 616.593c-13.425 14.93-30.979 24.884-50.591 24.884 1.029 0 2.064 0 3.094 0v128.156c0 52.257-17.548 99.538-46.457 134.377s-68.145 55.99-111.508 55.99h-693.818c-43.363 0-82.597-21.152-111.506-55.99s-46.461-82.119-46.461-134.377v-643.266c0-52.256 17.552-99.538 46.461-134.376s68.143-55.991 111.506-55.991h693.818c43.364 0 82.599 21.154 111.508 55.991s46.457 82.119 46.457 134.376v129.401c-1.029 0-2.064 0-3.094 0 19.612 0 37.166 9.954 50.591 24.883 12.385 14.929 20.647 37.327 20.647 60.966v214.008c0 23.64-8.262 44.792-20.647 60.967zM952.967 127.612c0-33.593-11.356-63.456-29.944-85.854-18.583-22.393-43.364-36.083-71.238-36.083h-693.818c-27.877 0-52.656 13.689-71.24 36.083-18.585 22.399-29.942 52.262-29.942 85.854v642.021c0 33.594 11.357 63.456 29.942 85.852s43.363 36.083 71.24 36.083h693.818c27.874 0 52.655-13.687 71.238-36.083 18.588-22.396 29.944-52.257 29.944-85.852v-128.156h-320.065c-43.364 0-81.564-21.152-110.474-54.746-27.877-33.594-45.429-80.875-45.429-133.132v-8.71c0-52.255 17.552-98.292 45.429-133.13 27.875-33.598 67.11-54.746 110.474-54.746h320.065v-129.401zM1021.111 341.617c0-4.974-2.070-9.954-4.134-12.439-3.094-3.735-6.193-4.98-10.321-4.98h-373.755c-26.845 0-52.655 13.689-70.209 34.838-17.554 21.154-28.909 52.262-28.909 84.609v8.709c0 33.594 11.355 63.456 28.909 84.608 18.583 22.396 43.364 34.838 70.209 34.838h373.755c4.128 0 8.257-2.488 10.321-4.977 3.099-3.733 4.134-7.465 4.134-12.442v-212.765zM640.124 504.605c-12.39 0-23.746-6.221-32.003-16.175-8.262-9.954-13.425-23.64-13.425-38.571s5.163-28.618 13.425-38.572c8.257-9.954 19.612-16.174 32.003-16.174s23.746 6.219 33.037 16.174c8.262 9.955 13.425 23.641 13.425 39.816 0 14.931-5.163 28.618-13.425 39.815-9.291 7.465-20.647 13.687-33.037 13.687z" />
<glyph unicode="&#xe927;" glyph-name="ico2-wallet-bal" horiz-adv-x="1138" d="M971.844 696.384h-805.919c-91.497 0-165.926-70.223-165.926-156.546v-447.283c0-86.327 74.428-156.551 165.926-156.551h805.923c91.493 0 165.926 70.22 165.926 156.551v447.283c-0.004 86.324-74.433 156.546-165.93 156.546zM1090.363 92.551c0-61.633-53.142-111.821-118.515-111.821h-805.923c-65.375 0-118.517 50.187-118.517 111.821v447.287c0 61.633 53.144 111.819 118.517 111.819h805.923c65.373 0 118.515-50.185 118.515-111.819v-447.287zM924.433 383.287c-39.204 0-71.107-30.102-71.107-67.091 0-36.993 31.903-67.095 71.107-67.095 39.208 0 71.111 30.102 71.111 67.095 0 36.989-31.903 67.091-71.111 67.091zM924.433 293.831c-13.035 0-23.704 10.020-23.704 22.365s10.669 22.365 23.704 22.365c13.039 0 23.707-10.020 23.707-22.365s-10.669-22.365-23.707-22.365zM1114.070 472.739h-189.626c-91.496 0-165.926-70.22-165.926-156.547s74.43-156.551 165.926-156.551h189.626c13.084 0 23.707 10.020 23.707 22.365v268.368c0 12.345-10.623 22.365-23.707 22.365zM1090.37 204.371h-165.926c-65.377 0-118.519 50.184-118.519 111.821 0 61.633 53.146 111.817 118.519 111.817h165.926v-223.638zM969.33 684.038l-100.36 189.382c-20.245 38.199-55.182 66.332-98.323 79.213-43.141 12.838-88.841 8.812-128.759-11.406l-487.203-247.528c-11.52-5.814-15.833-19.413-9.624-30.282 6.211-10.869 20.622-14.939 32.095-9.081l487.298 247.44c28.444 14.492 61.201 17.4 91.921 8.185 30.815-9.169 55.751-29.296 70.212-56.582l100.36-189.379c4.172-7.827 12.516-12.345 21.193-12.345 3.554 0 7.157 0.761 10.57 2.372 11.708 5.546 16.452 18.964 10.619 30.011zM874.227 863.49c-6.258 10.913-20.67 14.939-32.142 9.125l-352.184-178.913c-11.522-5.86-15.834-19.413-9.626-30.282 4.267-7.514 12.421-11.764 20.859-11.764 3.793 0 7.68 0.849 11.283 2.64l352.188 178.913c11.518 5.86 15.834 19.413 9.622 30.282zM426.663 830.569h-165.924c-143.737 0-260.738-110.344-260.738-246.006v-44.726c0-12.345 10.62-22.365 23.704-22.365s23.704 10.020 23.704 22.365v44.726c0 110.971 95.715 201.278 213.332 201.278h165.922c13.084 0 23.704 10.020 23.704 22.365s-10.619 22.363-23.704 22.363zM877.029 830.569c-13.084 0-23.704-10.020-23.704-22.365s10.619-22.365 23.704-22.365c117.616 0 213.33-90.307 213.33-201.278v-44.728c0-12.345 10.623-22.365 23.707-22.365s23.704 10.020 23.704 22.365v44.728c-0.004 135.663-117.005 246.008-260.741 246.008z" />
<glyph unicode="&#xe928;" glyph-name="ico2-withdraw" d="M170.152 50.142c-3.718 3.721-8.878 5.86-14.138 5.86s-10.42-2.139-14.14-5.86c-3.72-3.726-5.86-8.88-5.86-14.143 0-5.257 2.138-10.422 5.86-14.137 3.72-3.721 8.88-5.865 14.14-5.865s10.42 2.145 14.138 5.865c3.72 3.715 5.862 8.88 5.862 14.137 0 5.262-2.14 10.422-5.862 14.143zM939.059 594.126c-3.721 3.722-8.863 5.86-14.143 5.86-5.262 0-10.422-2.138-14.143-5.86-3.715-3.72-5.86-8.88-5.86-14.14s2.145-10.42 5.86-14.138c3.721-3.72 8.88-5.862 14.143-5.862 5.279 0 10.422 2.14 14.143 5.862 3.738 3.718 5.877 8.878 5.877 14.138s-2.139 10.42-5.877 14.14zM1018.197 954.142c-3.749 3.75-8.841 5.858-14.143 5.858l-491.989-0.026c-11.044 0-19.998-8.956-19.998-20v-57.194l-189.578-50.798c-10.67-2.86-17.002-13.826-14.142-24.494l98.254-366.684-84.998-84.998c-10.818 15.798-28.982 26.186-49.528 26.186h-191.994c-33.084 0-59.998-26.92-59.998-60.001v-325.99c0-33.087 26.914-60.001 59.998-60.001h191.996c28.106 0 51.75 19.433 58.23 45.562l23.78-20.742c18.358-16.009 41.878-24.821 66.236-24.821h603.732c11.048 0 20.002 8.954 20.002 19.996v984.004c-0.006 5.304-2.105 10.392-5.86 14.142zM272.073-3.999c0-11.031-8.972-20.002-20-20.002h-191.994c-11.028 0-20 8.971-20 20.002v325.99c0 11.025 8.972 19.996 20 19.996h75.998v-230.389c0-11.042 8.956-19.996 20-19.996s20 8.954 20 19.996v230.389h75.998c11.028 0 20-8.971 20-19.996v-325.99h-0.002zM332.159 798.522l159.908 42.848v-74.11l-13.404-3.592c-5.126-1.374-9.492-4.724-12.144-9.318s-3.372-10.052-1.998-15.176c7.686-28.682-9.396-58.268-38.078-65.954-5.13-1.376-9.504-4.732-12.154-9.336-2.65-4.602-3.364-10.070-1.978-15.198l77.958-288.676h-40.14l-20.686 80.928c-0.658 2.576-1.81 4.95-3.352 7.014l-93.932 350.57zM492.067 675.542v-168.762l-36.478 135.070c15.238 7.868 27.708 19.64 36.478 33.692zM779.395-24.001h-379.076c-14.69 0-28.876 5.319-39.948 14.973l-48.298 42.121v276.617l87.316 87.313 15.836-61.958c2.264-8.858 10.238-15.047 19.376-15.047l393.206-0.023c15.44 0 28.001-12.561 28.001-28.001s-12.561-28.001-28.001-28.001h-201.478c-11.042 0-20.002-8.954-20.002-20.002 0-11.042 8.96-19.996 20.002-19.996h264.078c15.44 0 28.001-12.561 28.001-28.001s-12.561-28.001-28.001-28.001h-264.078c-11.042 0-20.002-8.954-20.002-20.002 0-11.042 8.96-19.996 20.002-19.996h221.286c15.44 0 28.001-12.561 28.001-28.001s-12.561-28.001-28.001-28.001h-221.286c-11.042 0-20.002-8.954-20.002-20.002 0-11.042 8.96-19.996 20.002-19.996h153.065c15.44 0 28.001-12.561 28.001-28.001 0-15.434-12.561-27.995-28.001-27.995zM984.058-24.001h-142.723c3.88 8.545 6.059 18.022 6.059 28.001s-2.179 19.456-6.059 28.001h6.281c37.495 0 67.999 30.504 67.999 67.999 0 10.934-2.611 21.271-7.219 30.436 28.791 7.908 50.011 34.293 50.011 65.559 0 15.172-5.001 29.19-13.426 40.511v253.482c0 11.044-8.954 20-19.996 20-11.048 0-20.002-8.956-20.002-20v-227.586c-4.699 1.030-9.574 1.593-14.575 1.593h-0.66c3.88 8.545 6.059 18.017 6.059 28.001 0 37.495-30.504 67.994-67.999 67.994h-32.148c34.133 14.643 58.112 48.575 58.112 88.013 0 52.778-42.934 95.716-95.716 95.716-52.776 0-95.71-42.938-95.71-95.716 0-39.438 23.973-73.37 58.112-88.013h-109.329v380.287c35.732 7.786 63.92 35.976 71.708 71.706h150.443c7.782-35.73 35.971-63.92 71.703-71.706v-62.18c0-11.044 8.954-20 19.996-20 11.048 0 20.002 8.956 20.002 20v80.036c0 11.044-8.954 20-20.002 20-29.69 0-53.845 24.158-53.845 53.85 0 11.044-8.954 20-20.002 20h-186.152c-11.042 0-19.996-8.956-19.996-20 0-29.694-24.161-53.85-53.851-53.85-11.042 0-19.996-8.956-19.996-20v-398.137h-39.067v559.985l451.989 0.022v-944.001zM758.062 392.284c-30.72 0-55.711 24.994-55.711 55.714s24.991 55.716 55.711 55.716c30.72 0 55.711-24.994 55.711-55.714s-24.991-55.716-55.711-55.716z" />
<glyph unicode="&#xea0a;" glyph-name="plus" d="M992 576h-352v352c0 17.672-14.328 32-32 32h-192c-17.672 0-32-14.328-32-32v-352h-352c-17.672 0-32-14.328-32-32v-192c0-17.672 14.328-32 32-32h352v-352c0-17.672 14.328-32 32-32h192c17.672 0 32 14.328 32 32v352h352c17.672 0 32 14.328 32 32v192c0 17.672-14.328 32-32 32z" />
<glyph unicode="&#xea3e;" glyph-name="arrow-down2" d="M877.254 338.746l-320-320c-24.992-24.994-65.514-24.994-90.508 0l-320 320c-24.994 24.994-24.994 65.516 0 90.51 24.994 24.996 65.516 24.996 90.51 0l210.744-210.746v613.49c0 35.346 28.654 64 64 64s64-28.654 64-64v-613.49l210.746 210.746c12.496 12.496 28.876 18.744 45.254 18.744s32.758-6.248 45.254-18.746c24.994-24.994 24.994-65.514 0-90.508z" />
</font>
</defs>
</svg>
