<svg width="20" height="17" viewBox="0 0 20 17" fill="none" xmlns="http://www.w3.org/2000/svg">
<path d="M19.6169 5.80555C19.3678 5.57566 19.0421 5.4224 18.6782 5.4224C18.6973 5.4224 18.7165 5.4224 18.7356 5.4224V3.44922C18.7356 2.64463 18.41 1.91666 17.8736 1.38026C17.3372 0.843859 16.6092 0.518188 15.8046 0.518188H2.93103C2.12644 0.518188 1.39847 0.843859 0.862069 1.38026C0.325671 1.91666 0 2.64463 0 3.44922V13.3534C0 14.158 0.325671 14.886 0.862069 15.4224C1.39847 15.9588 2.12644 16.2845 2.93103 16.2845H15.8046C16.6092 16.2845 17.3372 15.9588 17.8736 15.4224C18.41 14.886 18.7356 14.158 18.7356 13.3534V11.3611C18.7165 11.3611 18.6973 11.3611 18.6782 11.3611C19.0421 11.3611 19.3678 11.2078 19.6169 10.978C19.8467 10.7481 20 10.4032 20 10.0393V6.74424C20 6.38026 19.8467 6.05459 19.6169 5.80555ZM17.682 13.3343C17.682 13.8515 17.4713 14.3113 17.1264 14.6561C16.7816 15.0009 16.3218 15.2117 15.8046 15.2117H2.93103C2.41379 15.2117 1.95402 15.0009 1.6092 14.6561C1.26437 14.3113 1.05364 13.8515 1.05364 13.3343V3.44922C1.05364 2.93198 1.26437 2.47221 1.6092 2.12738C1.95402 1.78256 2.41379 1.57183 2.93103 1.57183H15.8046C16.3218 1.57183 16.7816 1.78256 17.1264 2.12738C17.4713 2.47221 17.682 2.93198 17.682 3.44922V5.4224H11.7433C10.9387 5.4224 10.2299 5.74807 9.69349 6.26532C9.17624 6.78256 8.85057 7.51053 8.85057 8.31512V8.44922C8.85057 9.25382 9.17624 9.96263 9.69349 10.499C10.2107 11.0163 10.9387 11.3419 11.7433 11.3419H17.682V13.3343ZM18.9464 10.0393C18.9464 10.1159 18.908 10.1925 18.8697 10.2308C18.8123 10.2883 18.7548 10.3075 18.6782 10.3075H11.7433C11.2452 10.3075 10.7663 10.0967 10.4406 9.77106C10.1149 9.44539 9.90421 8.96646 9.90421 8.46838V8.33428C9.90421 7.81704 10.1149 7.35727 10.4406 7.0316C10.7854 6.68677 11.2452 6.4952 11.7433 6.4952H18.6782C18.7548 6.4952 18.8314 6.53351 18.8697 6.57183C18.9272 6.6293 18.9464 6.68677 18.9464 6.7634V10.0393Z" fill="#031298"/>
<path d="M11.8773 7.52979C11.6475 7.52979 11.4367 7.62557 11.2835 7.77883C11.1302 7.93208 11.0344 8.14281 11.0344 8.3727C11.0344 8.60258 11.1302 8.81331 11.2835 8.96657C11.4367 9.11982 11.6475 9.21561 11.8773 9.21561C12.1072 9.21561 12.3179 9.11982 12.4904 8.96657C12.6436 8.81331 12.7394 8.60258 12.7394 8.35354C12.7394 8.12365 12.6436 7.91293 12.4904 7.74051C12.3179 7.62557 12.1072 7.52979 11.8773 7.52979Z" fill="#031298"/>
<line x1="4.99985" y1="6.16953" x2="4.99985" y2="10.7849" stroke="#031298" stroke-width="0.769231" stroke-linecap="round"/>
<line x1="7.30752" y1="8.47727" x2="2.69214" y2="8.47727" stroke="#031298" stroke-width="0.769231" stroke-linecap="round"/>
</svg>
