<svg width="10" height="13" viewBox="0 0 10 13" fill="none" xmlns="http://www.w3.org/2000/svg">
<path d="M2.39575 2.87504V1.66671C2.39575 1.34624 2.52306 1.03889 2.74966 0.812287C2.97627 0.58568 3.28362 0.458374 3.60409 0.458374H6.02075C6.34122 0.458374 6.64857 0.58568 6.87517 0.812287C7.10178 1.03889 7.22908 1.34624 7.22908 1.66671V2.87504M9.04158 2.87504V11.3334C9.04158 11.6538 8.91428 11.9612 8.68767 12.1878C8.46107 12.4144 8.15372 12.5417 7.83325 12.5417H1.79159C1.47112 12.5417 1.16377 12.4144 0.937165 12.1878C0.710558 11.9612 0.583252 11.6538 0.583252 11.3334V2.87504H9.04158Z" stroke="#FD83A4" stroke-width="0.90625" stroke-linecap="round" stroke-linejoin="round"/>
</svg>
