<svg width="30" height="27" viewBox="0 0 30 27" fill="none" xmlns="http://www.w3.org/2000/svg">
<rect x="0.75" y="0.75" width="28.5" height="25.5" rx="2.25" stroke="#AD67F2" stroke-width="1.5"/>
<path d="M23.9183 9.07616C23.8813 8.98922 23.8274 8.91148 23.7605 8.84642C23.7562 8.84218 23.7518 8.84146 23.7482 8.83795C23.6827 8.77785 23.6078 8.72768 23.5235 8.69374C23.4544 8.66617 23.3817 8.65769 23.309 8.65132C23.2872 8.6499 23.269 8.64001 23.2471 8.64001H17.4295C17.0274 8.64001 16.7023 8.95597 16.7023 9.34687C16.7023 9.73777 17.0274 10.0537 17.4295 10.0537H21.499L15.7424 15.6809L13.552 12.9553C13.4255 12.7977 13.2372 12.7001 13.0336 12.6853C12.822 12.6704 12.627 12.7404 12.4787 12.8768L6.89379 18.0163C6.60217 18.2849 6.58983 18.7323 6.86543 19.0158C7.00943 19.1621 7.2014 19.2356 7.39412 19.2356C7.57375 19.2356 7.75335 19.1713 7.8937 19.0426L12.8976 14.4375L15.1032 17.1822C15.2319 17.3426 15.4246 17.4409 15.6333 17.4529C15.842 17.4642 16.0449 17.3893 16.1925 17.2458L22.5199 11.0602V15.0016C22.5199 15.3925 22.845 15.7085 23.2471 15.7085C23.6493 15.7085 23.9744 15.3925 23.9744 15.0016V9.3469V9.34618C23.9736 9.25359 23.9547 9.16241 23.9183 9.07616Z" fill="#AD67F2"/>
</svg>
